<svg width="46" height="33" fill="none" xmlns="http://www.w3.org/2000/svg"><path d="M44.552 7.006a2.69 2.69 0 00-2.017-.891H13.023l-.287-1.4c-.182-.893-.873-1.618-1.797-1.888l-7.54-2.2C2.016.226.547.953.119 2.253c-.43 1.3.344 2.68 1.726 3.084l6.04 1.762L12.49 26.09c.16.803.724 1.454 1.472 1.781-.022.169-.035.34-.035.515 0 2.302 1.992 4.174 4.44 4.174 2.448 0 4.44-1.872 4.44-4.174a3.97 3.97 0 00-.012-.286h7.009c-.007.095-.012.19-.012.286 0 2.302 1.992 4.174 4.44 4.174 2.448 0 4.44-1.872 4.44-4.174 0-.103-.006-.205-.014-.306 1.122-.128 2.047-.923 2.26-1.99l4.194-17.056a2.36 2.36 0 00-.56-2.028zM18.366 30.419c-1.192 0-2.162-.912-2.162-2.033 0-1.122.97-2.034 2.162-2.034s2.162.912 2.162 2.034c0 1.12-.97 2.033-2.162 2.033zm15.865 0c-1.193 0-2.163-.912-2.163-2.033 0-1.122.97-2.034 2.163-2.034 1.192 0 2.162.912 2.162 2.034 0 1.12-.97 2.033-2.162 2.033zm1.523-8.458H17.79c-.869 0-1.573-.662-1.573-1.479 0-.817.704-1.479 1.573-1.479h17.964c.869 0 1.573.662 1.573 1.48 0 .816-.704 1.478-1.573 1.478zm0-7.887H17.79c-.869 0-1.573-.663-1.573-1.48 0-.816.704-1.478 1.573-1.478h17.964c.869 0 1.573.662 1.573 1.479 0 .816-.704 1.478-1.573 1.478z" fill="#EB8671"/></svg>