<svg width="50" height="50" fill="none" xmlns="http://www.w3.org/2000/svg"><path d="M9 4C6.25 4 4 6.25 4 9v32c0 2.75 2.25 5 5 5h16.832a.99.99 0 00.326 0h5.674a.99.99 0 00.326 0H41c2.75 0 5-2.25 5-5V9c0-2.75-2.25-5-5-5H9zm0 2h32c1.668 0 3 1.332 3 3v32c0 1.668-1.332 3-3 3h-8V30h3.82l1.4-7H33v-2c0-.557.053-.602.24-.723.188-.12.766-.277 1.76-.277h3v-5.63l-.57-.272S35.133 13 32 13c-2.25 0-4.098.896-5.281 2.375C25.535 16.854 25 18.834 25 21v2h-3v7h3v14H9c-1.668 0-3-1.332-3-3V9c0-1.668 1.332-3 3-3zm23 9c2.078 0 3.387.459 4 .701V18h-1c-1.15 0-2.072.096-2.85.6-.777.503-1.15 1.46-1.15 2.4v4h4.78l-.6 3H31v16h-4V28h-3v-3h3v-4c0-1.834.465-3.354 1.281-4.375C29.098 15.604 30.25 15 32 15z" fill="#EB8671"/></svg>