<svg width="38" height="38" fill="none" xmlns="http://www.w3.org/2000/svg"><path d="M23.6 25.133v-3.066c.69-.342 2.663-2.691 2.87-4.527.543-.041 1.396-.54 1.647-2.507.135-1.056-.401-1.65-.727-1.837 0 0 .81-1.538.81-3.394 0-3.723-1.461-6.9-4.6-6.9 0 0-1.09-2.3-4.6-2.3-6.504 0-9.2 4.172-9.2 9.2 0 1.692.81 3.394.81 3.394-.325.187-.862.782-.727 1.837.251 1.967 1.104 2.466 1.647 2.507.207 1.836 2.18 4.185 2.87 4.527v3.066C12.867 29.733.6 26.667.6 37.4h36.8c0-10.733-12.267-7.667-13.8-12.267z" fill="#EB8671"/></svg>