<svg width="50" height="50" fill="none" xmlns="http://www.w3.org/2000/svg"><path d="M24.426 3a35.6 35.6 0 00-4.11.258c-2.636.324-5.25.863-7.757 2.015-3.988 1.833-6.816 4.942-7.637 9.461a59.516 59.516 0 00-.789 5.786c-.308 3.777-.117 7.566.953 11.289.844 2.933 2.399 5.57 5.121 7.28 1.153.724 2.672 1.075 3.465 1.442.223.106.278.168.29.184.011.012.042.039.039.273-.028 2.39 0 7.016 0 7.016l.003.996h1.786l.289-.281s4.535-4.364 6.175-6.16c.297-.32.45-.5.48-.52.028-.02-.019-.031.286-.039 2.152-.043 4.3-.125 6.45-.242 2.831-.156 5.718-.426 8.495-1.586 2.418-1.012 4.438-2.664 5.66-5.14 1.25-2.54 1.919-5.231 2.169-8.016.414-4.637.269-9.282-1.012-13.86-.754-2.683-2.27-4.953-4.594-6.554-2.781-1.914-5.918-2.633-8.988-3.09a46.483 46.483 0 00-5.41-.496c-.454-.012-.907-.02-1.364-.016zm1.309 2.016c1.723.047 3.445.215 5.172.472 2.96.442 5.754 1.114 8.148 2.762 1.942 1.336 3.153 3.14 3.801 5.441 1.195 4.282 1.348 8.668.945 13.149-.23 2.582-.843 5.015-1.972 7.308-.996 2.024-2.551 3.31-4.637 4.18-2.422 1.012-5.055 1.281-7.828 1.434-2.125.117-4.254.195-6.383.238-.535.012-1.059.152-1.43.426-.37.273-.539.527-.77.777-1.171 1.281-3.507 3.535-4.78 4.77-.008-1.492-.02-3.297 0-4.961.007-.512-.11-1.035-.403-1.45-.293-.413-.695-.663-1.082-.843-1.129-.524-2.605-.922-3.246-1.324-2.238-1.407-3.508-3.516-4.262-6.141-.988-3.434-1.175-6.969-.883-10.567.157-1.867.426-3.738.766-5.593.711-3.91 2.945-6.371 6.5-8.004 2.246-1.031 4.645-1.54 7.172-1.848a34.192 34.192 0 015.172-.226zM26.157 10c-.825 0-1.625.094-2.403.266-.535.125-.875.66-.754 1.199.122.539.66.875 1.2.754A8.739 8.739 0 0126.157 12a8.805 8.805 0 018.82 8.816 8.78 8.78 0 01-.219 1.965 1 1 0 00.754 1.196 1.001 1.001 0 001.196-.758c.175-.774.27-1.574.27-2.403 0-5.96-4.856-10.816-10.821-10.816zm-9.977 2.004a1.904 1.904 0 00-.508.043c-1.816.402-3.62 1.719-3.671 4.07.05.328.046.68.168.977.593 1.453 1.109 2.953 1.851 4.328 3.613 6.68 9.078 11.324 16.043 14.273.832.352 1.691.426 2.531.075 1.157-.48 2.137-1.223 2.79-2.29.894-1.464.906-2.48-.567-3.562-.965-.71-1.914-1.441-2.89-2.137-1.489-1.054-3.098-1.238-4.208.614-.058.093-.144.171-.219.25-.57.605-1.269.753-2.011.449-2.817-1.16-4.992-3.032-6.305-5.817-.773-1.636-.562-2.457.883-3.547.144-.105.281-.218.414-.34.633-.578.8-1.265.426-2.042a15.99 15.99 0 00-3.407-4.72c-.386-.366-.828-.597-1.32-.624zm9.961.996c-.441 0-.879.035-1.308.11a1.003 1.003 0 00-.637 1.64c.238.277.613.406.973.328.312-.05.64-.078.972-.078 3.25 0 5.86 2.61 5.86 5.86 0 .331-.028.66-.079.972-.078.36.051.734.329.973a1.003 1.003 0 001.64-.637c.074-.43.11-.867.11-1.309C34 16.531 30.469 13 26.14 13zm-.14 3a1.006 1.006 0 00-.88.496 1.01 1.01 0 000 1.008c.184.312.52.5.88.496 1.668 0 3 1.332 3 3-.004.36.183.695.496.879.312.18.695.18 1.007 0 .313-.184.5-.52.496-.879 0-2.75-2.25-5-5-5z" fill="#EB8671"/></svg>