<svg width="50" height="50" fill="none" xmlns="http://www.w3.org/2000/svg"><path d="M25 2C12.31 2 2 12.31 2 25c0 4.08 1.118 7.885 2.984 11.208L2.038 46.731a1 1 0 001.203 1.24l10.97-2.72C17.435 46.973 21.092 48 25 48c12.69 0 23-10.31 23-23S37.69 2 25 2zm0 2c11.61 0 21 9.39 21 21s-9.39 21-21 21c-3.721 0-7.208-.97-10.238-2.667a1.008 1.008 0 00-.73-.097l-9.606 2.381L7 36.426a.998.998 0 00-.099-.78A20.88 20.88 0 014 25C4 13.39 13.39 4 25 4zm-8.357 9c-.642 0-1.557.238-2.308 1.05-.452.485-2.335 2.32-2.335 5.544 0 3.362 2.332 6.261 2.613 6.635h.003v.002a31.652 31.652 0 003.004 3.684c1.803 1.898 4.338 4.093 7.485 5.435 1.45.616 2.593.99 3.46 1.262 1.604.504 3.066.427 4.165.266.822-.121 1.727-.517 2.622-1.084.894-.565 1.772-1.27 2.158-2.338a8.355 8.355 0 00.47-2.059c.024-.291.028-.55.008-.788s.002-.42-.22-.785c-.466-.764-.993-.784-1.543-1.056a161.73 161.73 0 00-2.05-.992c-.872-.417-1.625-.784-2.09-.95-.295-.106-.654-.258-1.17-.198-.518.058-1.03.43-1.326.872-.283.418-1.418 1.758-1.765 2.152-.005-.002.026.01-.11-.056-.429-.212-.952-.393-1.727-.802a14.172 14.172 0 01-2.805-1.946v-.003c-1.58-1.39-2.685-3.134-3.034-3.72.024-.027-.002.006.047-.043l.003-.003c.355-.35.672-.77.939-1.078.379-.435.545-.82.726-1.18.361-.714.16-1.502-.048-1.917v-.002c.014.029-.113-.252-.25-.576-.138-.325-.314-.747-.5-1.196-.375-.897-.793-1.905-1.042-2.496v-.001c-.293-.695-.688-1.195-1.207-1.438-.518-.242-.975-.173-.993-.174h-.003c-.37-.017-.774-.021-1.177-.021zm0 2c.386 0 .766.005 1.084.02.328.017.307.018.244-.012-.065-.03.023-.04.209.402.243.578.664 1.589 1.039 2.491.187.45.363.872.504 1.204.14.332.216.517.304.694v.002l.003.002c.086.171.078.062.048.121-.21.418-.24.521-.453.767-.326.375-.656.792-.832.965-.154.151-.431.386-.603.847-.174.46-.092 1.092.185 1.563.37.628 1.59 2.614 3.484 4.282a16.388 16.388 0 003.193 2.217c.89.468 1.612.741 1.774.822.385.19.804.338 1.293.28.49-.06.91-.356 1.178-.66h.001c.358-.405 1.418-1.616 1.926-2.363.022.008.016.002.183.063v.003h.003c.077.027 1.044.46 1.906.87.862.41 1.737.838 2.021.979.412.203.606.335.655.335a2.24 2.24 0 01-.006.329 6.336 6.336 0 01-.357 1.553c-.106.29-.654.892-1.346 1.33-.692.437-1.534.747-1.846.792-.937.138-2.05.19-3.273-.195a33.436 33.436 0 01-3.273-1.193c-2.776-1.184-5.136-3.199-6.82-4.972a29.96 29.96 0 01-2-2.339c-.479-.623-.687-.948-.863-1.177l-.001-.002c-.31-.41-2.207-3.05-2.207-5.427 0-2.516 1.168-3.503 1.8-4.184.333-.358.696-.41.842-.41h.001z" fill="#EB8671"/></svg>