<?xml version="1.0" encoding="utf-8"?><svg viewBox="0 0 46 38" xmlns="http://www.w3.org/2000/svg" xmlns:xlink="http://www.w3.org/1999/xlink"><style>:root>svg{display:none}:root>svg:target{display:block}</style><svg viewBox="0 0 46 33" id="corb" xmlns="http://www.w3.org/2000/svg"><path d="M44.552 7.006a2.69 2.69 0 00-2.017-.891H13.023l-.287-1.4c-.182-.893-.873-1.618-1.797-1.888l-7.54-2.2C2.016.226.547.953.119 2.253c-.43 1.3.344 2.68 1.726 3.084l6.04 1.762L12.49 26.09c.16.803.724 1.454 1.472 1.781-.022.169-.035.34-.035.515 0 2.302 1.992 4.174 4.44 4.174 2.448 0 4.44-1.872 4.44-4.174a3.97 3.97 0 00-.012-.286h7.009c-.007.095-.012.19-.012.286 0 2.302 1.992 4.174 4.44 4.174 2.448 0 4.44-1.872 4.44-4.174 0-.103-.006-.205-.014-.306 1.122-.128 2.047-.923 2.26-1.99l4.194-17.056a2.36 2.36 0 00-.56-2.028zM18.366 30.419c-1.192 0-2.162-.912-2.162-2.033 0-1.122.97-2.034 2.162-2.034s2.162.912 2.162 2.034c0 1.12-.97 2.033-2.162 2.033zm15.865 0c-1.193 0-2.163-.912-2.163-2.033 0-1.122.97-2.034 2.163-2.034 1.192 0 2.162.912 2.162 2.034 0 1.12-.97 2.033-2.162 2.033zm1.523-8.458H17.79c-.869 0-1.573-.662-1.573-1.479 0-.817.704-1.479 1.573-1.479h17.964c.869 0 1.573.662 1.573 1.48 0 .816-.704 1.478-1.573 1.478zm0-7.887H17.79c-.869 0-1.573-.663-1.573-1.48 0-.816.704-1.478 1.573-1.478h17.964c.869 0 1.573.662 1.573 1.479 0 .816-.704 1.478-1.573 1.478z"/></svg><svg viewBox="0 0 38 38" id="search" xmlns="http://www.w3.org/2000/svg"><path d="M15.933.6C7.483.6.6 7.482.6 15.932s6.883 15.333 15.333 15.333c3.675 0 7.05-1.305 9.695-3.47l9.155 9.154a1.533 1.533 0 102.168-2.168l-9.155-9.155a15.252 15.252 0 003.47-9.694c0-8.45-6.882-15.334-15.333-15.334zm0 3.066A12.243 12.243 0 0128.2 15.933 12.244 12.244 0 0115.933 28.2 12.244 12.244 0 013.667 15.933 12.243 12.243 0 0115.933 3.666z"/></svg><svg viewBox="0 0 38 38" id="user" xmlns="http://www.w3.org/2000/svg"><path d="M23.6 25.133v-3.066c.69-.342 2.663-2.691 2.87-4.527.543-.041 1.396-.54 1.647-2.507.135-1.056-.401-1.65-.727-1.837 0 0 .81-1.538.81-3.394 0-3.723-1.461-6.9-4.6-6.9 0 0-1.09-2.3-4.6-2.3-6.504 0-9.2 4.172-9.2 9.2 0 1.692.81 3.394.81 3.394-.325.187-.862.782-.727 1.837.251 1.967 1.104 2.466 1.647 2.507.207 1.836 2.18 4.185 2.87 4.527v3.066C12.867 29.733.6 26.667.6 37.4h36.8c0-10.733-12.267-7.667-13.8-12.267z"/></svg></svg>